<?xml version="1.0" encoding="utf-8"?>
<!-- Generator: Adobe Illustrator 16.0.0, SVG Export Plug-In . SVG Version: 6.00 Build 0)  -->
<!DOCTYPE svg PUBLIC "-//W3C//DTD SVG 1.1//EN" "http://www.w3.org/Graphics/SVG/1.1/DTD/svg11.dtd">
<svg version="1.1" id="Layer_1" xmlns="http://www.w3.org/2000/svg" xmlns:xlink="http://www.w3.org/1999/xlink" x="0px" y="0px"
	 width="841.89px" height="595.28px" viewBox="0 0 841.89 595.28" enable-background="new 0 0 841.89 595.28" xml:space="preserve">
<g>
	<defs>
		<rect id="SVGID_1_" y="0.002" width="841.89" height="595.275"/>
	</defs>
	<clipPath id="SVGID_2_">
		<use xlink:href="#SVGID_1_"  overflow="visible"/>
	</clipPath>
	<rect y="0.002" clip-path="url(#SVGID_2_)" fill="#FFFFFF" width="841.89" height="595.275"/>
	<g clip-path="url(#SVGID_2_)">
		<linearGradient id="SVGID_3_" gradientUnits="userSpaceOnUse" x1="721.4717" y1="256.6064" x2="435.4716" y2="616.6063">
			<stop  offset="0" style="stop-color:#FFFFFF"/>
			<stop  offset="1" style="stop-color:#CCCCCC"/>
		</linearGradient>
		<polygon opacity="0.8" fill="url(#SVGID_3_)" points="153,620 556,217 877,217 877,413 674,616 		"/>
		<linearGradient id="SVGID_4_" gradientUnits="userSpaceOnUse" x1="338.792" y1="41.021" x2="66.7923" y2="299.021">
			<stop  offset="0" style="stop-color:#FFFFFF"/>
			<stop  offset="1" style="stop-color:#CCCCCC"/>
		</linearGradient>
		<polygon opacity="0.8" fill="url(#SVGID_4_)" points="-45.75,187.25 153,-11.5 617.5,-11.5 289,317 -45.75,317 		"/>
		<linearGradient id="SVGID_5_" gradientUnits="userSpaceOnUse" x1="386.417" y1="109.1694" x2="793.4172" y2="538.1692">
			<stop  offset="0" style="stop-color:#FFFFFF"/>
			<stop  offset="1" style="stop-color:#CCCCCC"/>
		</linearGradient>
		<polygon opacity="0.8" fill="url(#SVGID_5_)" points="78,-19 736,605 852,605 852,403 437.75,-11.25 		"/>
		<linearGradient id="SVGID_6_" gradientUnits="userSpaceOnUse" x1="226.6729" y1="464.7607" x2="34.6727" y2="618.7607">
			<stop  offset="0" style="stop-color:#FFFFFF"/>
			<stop  offset="1" style="stop-color:#CCCCCC"/>
		</linearGradient>
		<polygon opacity="0.8" fill="url(#SVGID_6_)" points="380,612 162,394 -22,394 -22,612 		"/>
		<linearGradient id="SVGID_7_" gradientUnits="userSpaceOnUse" x1="349.9102" y1="548.9688" x2="823.9106" y2="65.9685">
			<stop  offset="0" style="stop-color:#FFFFFF"/>
			<stop  offset="1" style="stop-color:#CCCCCC"/>
		</linearGradient>
		<polygon opacity="0.8" fill="url(#SVGID_7_)" points="852,64 294.938,621.062 253,621.062 850.031,24.031 		"/>
		<linearGradient id="SVGID_8_" gradientUnits="userSpaceOnUse" x1="-9.2036" y1="308.5938" x2="365.3323" y2="-73.0534">
			<stop  offset="0" style="stop-color:#FFFFFF"/>
			<stop  offset="1" style="stop-color:#CCCCCC"/>
		</linearGradient>
		<polygon opacity="0.8" fill="url(#SVGID_8_)" points="-14,436 457.75,-35.75 204.006,-35.75 -27.372,195.628 		"/>
		<linearGradient id="SVGID_9_" gradientUnits="userSpaceOnUse" x1="594.6143" y1="444.1182" x2="920.4863" y2="112.0588">
			<stop  offset="0" style="stop-color:#FFFFFF"/>
			<stop  offset="1" style="stop-color:#CCCCCC"/>
		</linearGradient>
		<polygon opacity="0.8" fill="url(#SVGID_9_)" points="652,-19 334.727,298.273 643.227,606.773 838,606.773 529.387,298.16 
			840.469,-12.921 		"/>
	</g>
	<g opacity="0.4" clip-path="url(#SVGID_2_)">
		<linearGradient id="SVGID_10_" gradientUnits="userSpaceOnUse" x1="869.2979" y1="239.1836" x2="445.0633" y2="773.1849">
			<stop  offset="0" style="stop-color:#FFFFFF"/>
			<stop  offset="1" style="stop-color:#CCCCCC"/>
		</linearGradient>
		<polygon opacity="0.8" fill="url(#SVGID_10_)" points="26.063,778.218 623.849,180.433 1100,180.433 1100,471.167 
			798.883,772.284 		"/>
		<linearGradient id="SVGID_11_" gradientUnits="userSpaceOnUse" x1="301.6562" y1="-80.604" x2="-101.8118" y2="302.0977">
			<stop  offset="0" style="stop-color:#FFFFFF"/>
			<stop  offset="1" style="stop-color:#CCCCCC"/>
		</linearGradient>
		<polygon opacity="0.8" fill="url(#SVGID_11_)" points="-268.75,136.303 26.063,-158.51 715.074,-158.51 227.797,328.767 
			-268.75,328.767 		"/>
		<linearGradient id="SVGID_12_" gradientUnits="userSpaceOnUse" x1="372.2998" y1="20.4839" x2="976.019" y2="656.8358">
			<stop  offset="0" style="stop-color:#FFFFFF"/>
			<stop  offset="1" style="stop-color:#CCCCCC"/>
		</linearGradient>
		<polygon opacity="0.8" fill="url(#SVGID_12_)" points="-85.187,-169.635 890.85,755.968 1062.916,755.968 1062.916,456.333 
			448.443,-158.139 		"/>
		<linearGradient id="SVGID_13_" gradientUnits="userSpaceOnUse" x1="135.3462" y1="547.9463" x2="-149.455" y2="776.3804">
			<stop  offset="0" style="stop-color:#FFFFFF"/>
			<stop  offset="1" style="stop-color:#CCCCCC"/>
		</linearGradient>
		<polygon opacity="0.8" fill="url(#SVGID_13_)" points="362.781,766.351 39.414,442.983 -233.521,442.983 -233.521,766.351 		"/>
		<linearGradient id="SVGID_14_" gradientUnits="userSpaceOnUse" x1="318.1479" y1="672.8545" x2="1021.2509" y2="-43.5981">
			<stop  offset="0" style="stop-color:#FFFFFF"/>
			<stop  offset="1" style="stop-color:#CCCCCC"/>
		</linearGradient>
		<polygon opacity="0.8" fill="url(#SVGID_14_)" points="1062.916,-46.518 236.604,779.794 174.397,779.794 1059.996,-105.805 		"/>
		<linearGradient id="SVGID_15_" gradientUnits="userSpaceOnUse" x1="-214.5396" y1="316.2959" x2="341.0236" y2="-249.8156">
			<stop  offset="0" style="stop-color:#FFFFFF"/>
			<stop  offset="1" style="stop-color:#CCCCCC"/>
		</linearGradient>
		<polygon opacity="0.8" fill="url(#SVGID_15_)" points="-221.654,505.283 478.11,-194.481 101.723,-194.481 -241.489,148.73 		"/>
		<linearGradient id="SVGID_16_" gradientUnits="userSpaceOnUse" x1="681.125" y1="517.3262" x2="1164.5034" y2="24.7699">
			<stop  offset="0" style="stop-color:#FFFFFF"/>
			<stop  offset="1" style="stop-color:#CCCCCC"/>
		</linearGradient>
		<polygon opacity="0.8" fill="url(#SVGID_16_)" points="766.249,-169.635 295.625,300.988 753.235,758.599 1042.149,758.599 
			584.372,300.82 1045.812,-160.619 		"/>
	</g>
</g>
</svg>
