<?xml version="1.0" encoding="utf-8"?>
<!-- Generator: Adobe Illustrator 16.0.0, SVG Export Plug-In . SVG Version: 6.00 Build 0)  -->
<!DOCTYPE svg PUBLIC "-//W3C//DTD SVG 1.1//EN" "http://www.w3.org/Graphics/SVG/1.1/DTD/svg11.dtd">
<svg version="1.1" id="Layer_1" xmlns="http://www.w3.org/2000/svg" xmlns:xlink="http://www.w3.org/1999/xlink" x="0px" y="0px"
	 width="494.166px" height="81px" viewBox="0 0 494.166 81" enable-background="new 0 0 494.166 81" xml:space="preserve">
<g>
	<path fill="#56C8E2" d="M47.684,16.77c-0.387,0.773-0.836,1.318-1.346,1.636c-0.51,0.316-1.118,0.474-1.819,0.474
		c-0.705,0-1.496-0.271-2.375-0.816c-0.88-0.545-1.918-1.151-3.113-1.82s-2.593-1.275-4.194-1.82
		c-1.601-0.545-3.492-0.818-5.672-0.818c-1.97,0-3.684,0.237-5.143,0.712c-1.459,0.476-2.691,1.135-3.692,1.979
		c-1.003,0.844-1.75,1.855-2.242,3.033c-0.493,1.179-0.738,2.472-0.738,3.878c0,1.793,0.5,3.289,1.504,4.484
		c1.001,1.197,2.329,2.216,3.982,3.061c1.654,0.844,3.534,1.601,5.645,2.268c2.109,0.669,4.263,1.381,6.462,2.137
		c2.198,0.757,4.353,1.635,6.462,2.638c2.11,1.002,3.992,2.268,5.646,3.798c1.651,1.53,2.98,3.404,3.984,5.619
		c1.001,2.216,1.503,4.907,1.503,8.072c0,3.446-0.59,6.674-1.768,9.68c-1.179,3.008-2.901,5.629-5.17,7.861
		c-2.269,2.234-5.038,3.992-8.309,5.275c-3.272,1.282-7.018,1.926-11.237,1.926c-2.427,0-4.819-0.238-7.175-0.713
		c-2.357-0.475-4.616-1.151-6.779-2.031c-2.165-0.878-4.186-1.933-6.069-3.166c-1.88-1.229-3.561-2.6-5.038-4.114l4.116-6.806
		c0.387-0.491,0.853-0.904,1.398-1.238c0.545-0.336,1.15-0.502,1.82-0.502c0.878,0,1.829,0.359,2.849,1.082
		c1.02,0.722,2.224,1.521,3.613,2.4c1.391,0.879,3.024,1.68,4.907,2.399c1.881,0.722,4.14,1.081,6.779,1.081
		c4.044,0,7.175-0.957,9.391-2.874s3.324-4.668,3.324-8.255c0-2.006-0.502-3.641-1.503-4.908c-1.003-1.266-2.332-2.33-3.984-3.191
		c-1.654-0.861-3.535-1.59-5.645-2.189c-2.11-0.599-4.257-1.248-6.437-1.952c-2.182-0.704-4.326-1.548-6.436-2.531
		c-2.111-0.985-3.994-2.27-5.646-3.853c-1.653-1.583-2.98-3.561-3.983-5.935c-1.001-2.375-1.503-5.302-1.503-8.784
		c0-2.778,0.555-5.487,1.662-8.125c1.108-2.638,2.725-4.977,4.853-7.018c2.126-2.039,4.739-3.674,7.835-4.905
		c3.094-1.231,6.628-1.848,10.604-1.848c4.501,0,8.651,0.705,12.449,2.112c3.8,1.406,7.035,3.375,9.708,5.907L47.684,16.77z"/>
	<path fill="#56C8E2" d="M60.04,79.181V0.784h13.029v30.125c2.112-2.005,4.432-3.622,6.966-4.854
		c2.531-1.229,5.502-1.846,8.914-1.846c2.955,0,5.574,0.501,7.86,1.504c2.287,1.002,4.195,2.409,5.725,4.22
		c1.529,1.812,2.691,3.975,3.482,6.489c0.792,2.516,1.188,5.285,1.188,8.309v34.451H94.172V44.73c0-3.305-0.764-5.864-2.293-7.675
		c-1.532-1.811-3.825-2.717-6.885-2.717c-2.253,0-4.361,0.509-6.332,1.529c-1.97,1.021-3.834,2.41-5.593,4.168v39.145H60.04z"/>
	<path fill="#56C8E2" d="M140.504,24.208c4.042,0,7.71,0.651,10.999,1.953c3.289,1.301,6.093,3.148,8.414,5.539
		c2.322,2.392,4.115,5.311,5.383,8.757c1.264,3.447,1.897,7.298,1.897,11.555c0,4.29-0.634,8.159-1.897,11.604
		c-1.268,3.448-3.061,6.384-5.383,8.811c-2.321,2.428-5.125,4.293-8.414,5.592c-3.289,1.301-6.957,1.953-10.999,1.953
		c-4.045,0-7.722-0.652-11.026-1.953c-3.307-1.299-6.129-3.164-8.469-5.592c-2.338-2.427-4.149-5.362-5.433-8.811
		c-1.284-3.445-1.927-7.314-1.927-11.604c0-4.257,0.643-8.107,1.927-11.555c1.283-3.446,3.095-6.365,5.433-8.757
		c2.34-2.391,5.162-4.238,8.469-5.539C132.782,24.859,136.459,24.208,140.504,24.208z M140.504,69.949
		c4.502,0,7.834-1.513,9.997-4.537c2.161-3.023,3.244-7.455,3.244-13.294s-1.083-10.288-3.244-13.348
		c-2.163-3.06-5.495-4.59-9.997-4.59c-4.573,0-7.95,1.539-10.13,4.616c-2.182,3.079-3.271,7.518-3.271,13.322
		c0,5.802,1.09,10.226,3.271,13.267C132.554,68.427,135.931,69.949,140.504,69.949z"/>
	<path fill="#56C8E2" d="M174.753,79.181V25.053h7.649c1.337,0,2.27,0.247,2.796,0.738c0.528,0.494,0.88,1.337,1.055,2.533
		l0.793,6.541c1.934-3.341,4.201-5.978,6.805-7.914c2.602-1.933,5.521-2.901,8.759-2.901c2.671,0,4.886,0.616,6.646,1.847
		l-1.688,9.759c-0.104,0.633-0.334,1.082-0.686,1.346c-0.354,0.263-0.828,0.396-1.426,0.396c-0.526,0-1.246-0.124-2.163-0.37
		c-0.913-0.245-2.127-0.37-3.64-0.37c-2.709,0-5.031,0.748-6.964,2.242c-1.935,1.496-3.568,3.686-4.905,6.569v33.712H174.753z"/>
	<path fill="#56C8E2" d="M236.283,24.208c3.41,0,6.55,0.546,9.416,1.636c2.867,1.09,5.338,2.682,7.414,4.774
		c2.074,2.093,3.693,4.661,4.854,7.703c1.16,3.042,1.74,6.516,1.74,10.418c0,0.986-0.045,1.804-0.133,2.453
		c-0.088,0.652-0.246,1.162-0.475,1.531s-0.535,0.633-0.924,0.791c-0.387,0.158-0.879,0.237-1.477,0.237h-33.447
		c0.388,5.558,1.88,9.637,4.484,12.239c2.602,2.604,6.048,3.904,10.339,3.904c2.111,0,3.932-0.246,5.461-0.739
		c1.531-0.492,2.867-1.036,4.01-1.636c1.143-0.598,2.145-1.143,3.008-1.635c0.861-0.492,1.695-0.738,2.504-0.738
		c0.529,0,0.984,0.104,1.371,0.316c0.389,0.211,0.723,0.511,1.006,0.896l3.797,4.748c-1.443,1.688-3.059,3.105-4.854,4.246
		c-1.793,1.144-3.668,2.059-5.619,2.744c-1.951,0.688-3.939,1.17-5.961,1.451c-2.023,0.28-3.982,0.422-5.883,0.422
		c-3.765,0-7.264-0.623-10.498-1.873c-3.236-1.248-6.049-3.094-8.44-5.539c-2.393-2.443-4.272-5.469-5.646-9.074
		c-1.372-3.605-2.057-7.781-2.057-12.529c0-3.693,0.598-7.166,1.793-10.419c1.195-3.252,2.91-6.084,5.144-8.495
		c2.234-2.408,4.96-4.316,8.179-5.723C228.607,24.913,232.238,24.208,236.283,24.208z M236.546,33.547
		c-3.797,0-6.771,1.072-8.914,3.218c-2.146,2.146-3.519,5.188-4.115,9.126h24.477c0-1.688-0.229-3.278-0.684-4.774
		c-0.459-1.494-1.162-2.804-2.111-3.931c-0.951-1.126-2.145-2.013-3.588-2.664C240.167,33.873,238.48,33.547,236.546,33.547z"/>
	<path fill="#B9C7D4" d="M308.345,36.501c-0.387,0.492-0.766,0.88-1.135,1.161c-0.369,0.283-0.904,0.422-1.607,0.422
		c-0.67,0-1.318-0.203-1.953-0.606c-0.633-0.404-1.391-0.863-2.268-1.372c-0.879-0.51-1.926-0.967-3.139-1.372
		c-1.215-0.404-2.717-0.607-4.51-0.607c-2.289,0-4.293,0.415-6.016,1.241c-1.725,0.826-3.158,2.014-4.301,3.561
		c-1.143,1.548-1.996,3.421-2.557,5.617c-0.564,2.198-0.844,4.688-0.844,7.467c0,2.884,0.307,5.45,0.922,7.702
		c0.613,2.25,1.504,4.141,2.664,5.67c1.16,1.53,2.566,2.691,4.221,3.482c1.652,0.791,3.516,1.188,5.59,1.188
		c2.078,0,3.758-0.254,5.039-0.766c1.285-0.509,2.365-1.072,3.246-1.688c0.879-0.615,1.645-1.179,2.295-1.688
		c0.65-0.512,1.381-0.766,2.189-0.766c1.055,0,1.846,0.404,2.375,1.213l3.744,4.748c-1.441,1.688-3.006,3.105-4.695,4.246
		c-1.689,1.144-3.438,2.059-5.25,2.744c-1.811,0.688-3.684,1.17-5.617,1.451c-1.934,0.28-3.852,0.422-5.752,0.422
		c-3.34,0-6.486-0.623-9.441-1.873c-2.955-1.248-5.533-3.067-7.73-5.459c-2.197-2.393-3.939-5.319-5.223-8.785
		c-1.283-3.463-1.924-7.412-1.924-11.843c0-3.976,0.568-7.659,1.713-11.053c1.143-3.394,2.822-6.331,5.039-8.81
		c2.217-2.48,4.957-4.422,8.229-5.83c3.271-1.407,7.035-2.111,11.291-2.111c4.045,0,7.588,0.651,10.631,1.953
		c3.041,1.301,5.775,3.165,8.203,5.592L308.345,36.501z"/>
	<path fill="#B9C7D4" d="M320.638,79.181V25.053h7.648c1.336,0,2.27,0.247,2.797,0.738c0.527,0.494,0.879,1.337,1.055,2.533
		l0.791,6.541c1.934-3.341,4.203-5.978,6.807-7.914c2.602-1.933,5.521-2.901,8.758-2.901c2.67,0,4.887,0.616,6.646,1.847
		l-1.688,9.759c-0.105,0.633-0.336,1.082-0.688,1.346c-0.352,0.263-0.826,0.396-1.424,0.396c-0.529,0-1.25-0.124-2.162-0.37
		c-0.916-0.245-2.129-0.37-3.641-0.37c-2.709,0-5.029,0.748-6.965,2.242c-1.934,1.496-3.568,3.686-4.906,6.569v33.712H320.638z"/>
	<path fill="#B9C7D4" d="M382.167,24.208c3.41,0,6.551,0.546,9.414,1.636c2.869,1.09,5.34,2.682,7.414,4.774
		c2.076,2.093,3.693,4.661,4.855,7.703c1.158,3.042,1.74,6.516,1.74,10.418c0,0.986-0.045,1.804-0.133,2.453
		c-0.088,0.652-0.246,1.162-0.475,1.531s-0.535,0.633-0.924,0.791c-0.387,0.158-0.879,0.237-1.477,0.237h-33.447
		c0.387,5.558,1.881,9.637,4.484,12.239c2.602,2.604,6.049,3.904,10.342,3.904c2.107,0,3.93-0.246,5.459-0.739
		c1.529-0.492,2.865-1.036,4.01-1.636c1.143-0.598,2.145-1.143,3.006-1.635s1.697-0.738,2.506-0.738
		c0.529,0,0.984,0.104,1.373,0.316c0.387,0.211,0.721,0.511,1.002,0.896l3.799,4.748c-1.443,1.688-3.061,3.105-4.854,4.246
		c-1.795,1.144-3.668,2.059-5.619,2.744c-1.953,0.688-3.939,1.17-5.963,1.451c-2.021,0.28-3.982,0.422-5.881,0.422
		c-3.764,0-7.264-0.623-10.498-1.873c-3.236-1.248-6.049-3.094-8.443-5.539c-2.389-2.443-4.271-5.469-5.643-9.074
		s-2.057-7.781-2.057-12.529c0-3.693,0.596-7.166,1.793-10.419c1.195-3.252,2.908-6.084,5.143-8.495
		c2.234-2.408,4.959-4.316,8.178-5.723C374.49,24.913,378.123,24.208,382.167,24.208z M382.429,33.547
		c-3.797,0-6.77,1.072-8.914,3.218c-2.146,2.146-3.518,5.188-4.115,9.126h24.479c0-1.688-0.229-3.278-0.686-4.774
		c-0.459-1.494-1.162-2.804-2.109-3.931c-0.949-1.126-2.146-2.013-3.588-2.664C386.052,33.873,384.365,33.547,382.429,33.547z"/>
	<path fill="#B9C7D4" d="M447.009,35.604c-0.354,0.563-0.723,0.958-1.109,1.187c-0.387,0.229-0.879,0.343-1.477,0.343
		c-0.635,0-1.312-0.175-2.033-0.528c-0.721-0.352-1.555-0.746-2.504-1.187c-0.951-0.439-2.031-0.835-3.244-1.187
		c-1.213-0.351-2.648-0.527-4.301-0.527c-2.568,0-4.59,0.546-6.066,1.636s-2.217,2.514-2.217,4.273c0,1.161,0.379,2.137,1.137,2.929
		c0.754,0.79,1.756,1.484,3.006,2.083c1.248,0.599,2.664,1.136,4.248,1.609c1.582,0.475,3.197,0.994,4.852,1.556
		c1.652,0.562,3.271,1.206,4.855,1.926c1.58,0.723,2.996,1.635,4.244,2.743c1.25,1.108,2.252,2.437,3.008,3.983
		s1.135,3.412,1.135,5.592c0,2.604-0.475,5.004-1.424,7.201c-0.951,2.199-2.34,4.1-4.168,5.697
		c-1.828,1.602-4.088,2.851-6.779,3.746c-2.689,0.896-5.777,1.346-9.258,1.346c-1.865,0-3.686-0.166-5.463-0.502
		c-1.773-0.334-3.48-0.798-5.115-1.398c-1.635-0.598-3.148-1.3-4.537-2.109c-1.391-0.808-2.613-1.688-3.666-2.637l3.006-4.961
		c0.387-0.597,0.846-1.053,1.373-1.371c0.525-0.316,1.193-0.475,2.004-0.475c0.809,0,1.572,0.229,2.295,0.686
		c0.721,0.458,1.555,0.951,2.506,1.478c0.949,0.527,2.066,1.021,3.35,1.478s2.91,0.686,4.881,0.686c1.547,0,2.875-0.185,3.982-0.553
		c1.107-0.37,2.021-0.854,2.744-1.452c0.719-0.597,1.246-1.292,1.582-2.083c0.334-0.792,0.5-1.61,0.5-2.454
		c0-1.266-0.377-2.302-1.133-3.113c-0.756-0.808-1.76-1.511-3.008-2.109c-1.248-0.598-2.672-1.134-4.273-1.608
		c-1.6-0.475-3.236-0.994-4.906-1.558c-1.67-0.562-3.307-1.221-4.904-1.978c-1.602-0.756-3.027-1.715-4.273-2.875
		c-1.25-1.162-2.254-2.584-3.008-4.273c-0.756-1.689-1.135-3.727-1.135-6.121c0-2.214,0.439-4.325,1.318-6.33
		s2.172-3.753,3.877-5.25c1.707-1.494,3.834-2.689,6.385-3.587c2.549-0.897,5.494-1.345,8.836-1.345
		c3.729,0,7.123,0.617,10.182,1.846c3.061,1.232,5.609,2.849,7.65,4.854L447.009,35.604z"/>
	<path fill="#B9C7D4" d="M478.767,80.025c-4.678,0-8.283-1.328-10.816-3.982c-2.531-2.655-3.797-6.322-3.797-11V34.813h-5.486
		c-0.705,0-1.311-0.229-1.82-0.687c-0.512-0.456-0.766-1.143-0.766-2.058v-5.17l8.705-1.423l2.744-14.772
		c0.141-0.704,0.465-1.248,0.975-1.635c0.512-0.387,1.152-0.581,1.926-0.581h6.752v17.041h14.246v9.285h-14.246v29.333
		c0,1.688,0.424,3.006,1.268,3.955c0.844,0.951,1.969,1.426,3.375,1.426c0.809,0,1.488-0.097,2.033-0.291
		c0.543-0.192,1.018-0.396,1.424-0.605c0.404-0.213,0.766-0.414,1.082-0.607s0.633-0.289,0.949-0.289
		c0.387,0,0.703,0.096,0.949,0.289s0.51,0.484,0.791,0.87l3.904,6.331c-1.898,1.582-4.08,2.779-6.541,3.588
		C483.955,79.621,481.406,80.025,478.767,80.025z"/>
</g>
</svg>
