<?xml version="1.0" encoding="utf-8"?>
<!-- Generator: Adobe Illustrator 16.0.0, SVG Export Plug-In . SVG Version: 6.00 Build 0)  -->
<!DOCTYPE svg PUBLIC "-//W3C//DTD SVG 1.1//EN" "http://www.w3.org/Graphics/SVG/1.1/DTD/svg11.dtd">
<svg version="1.1" id="Layer_1" xmlns="http://www.w3.org/2000/svg" xmlns:xlink="http://www.w3.org/1999/xlink" x="0px" y="0px"
	 width="140.333px" height="22.864px" viewBox="0 0 140.333 22.864" enable-background="new 0 0 140.333 22.864"
	 xml:space="preserve">
<g>
	<path fill="#FFFFFF" d="M13.622,4.58c-0.109,0.22-0.236,0.375-0.382,0.465c-0.145,0.09-0.316,0.135-0.517,0.135
		s-0.425-0.078-0.675-0.233c-0.25-0.154-0.544-0.327-0.885-0.517c-0.34-0.19-0.736-0.362-1.191-0.517
		C9.519,3.758,8.981,3.681,8.361,3.681c-0.56,0-1.046,0.067-1.461,0.202C6.485,4.018,6.136,4.206,5.852,4.445
		c-0.285,0.24-0.497,0.527-0.637,0.862c-0.141,0.335-0.21,0.702-0.21,1.102c0,0.509,0.142,0.934,0.428,1.274
		c0.284,0.339,0.661,0.629,1.131,0.869c0.47,0.24,1.004,0.455,1.604,0.644c0.6,0.19,1.212,0.393,1.837,0.607
		c0.624,0.215,1.235,0.465,1.836,0.75c0.599,0.284,1.133,0.644,1.603,1.079c0.47,0.434,0.847,0.967,1.132,1.596
		c0.285,0.628,0.428,1.394,0.428,2.292c0,0.98-0.167,1.896-0.503,2.75c-0.335,0.855-0.823,1.6-1.469,2.234
		c-0.645,0.635-1.431,1.135-2.359,1.498C9.74,22.368,8.677,22.55,7.478,22.55c-0.69,0-1.369-0.066-2.038-0.201
		c-0.67-0.135-1.312-0.328-1.926-0.578c-0.615-0.248-1.189-0.549-1.725-0.898c-0.533-0.35-1.012-0.738-1.431-1.17l1.169-1.934
		c0.11-0.139,0.242-0.256,0.397-0.352c0.154-0.096,0.327-0.143,0.517-0.143c0.25,0,0.521,0.104,0.811,0.307
		c0.288,0.205,0.632,0.434,1.025,0.684c0.396,0.25,0.859,0.477,1.395,0.682c0.533,0.205,1.176,0.307,1.926,0.307
		c1.148,0,2.038-0.271,2.667-0.816c0.63-0.545,0.945-1.326,0.945-2.346c0-0.57-0.143-1.033-0.428-1.395
		c-0.285-0.359-0.662-0.662-1.132-0.906s-1.004-0.452-1.603-0.622c-0.601-0.17-1.209-0.354-1.829-0.555
		c-0.62-0.199-1.229-0.438-1.828-0.719C3.79,11.615,3.256,11.249,2.786,10.8c-0.47-0.45-0.847-1.012-1.132-1.686
		C1.37,8.439,1.228,7.607,1.228,6.618c0-0.789,0.157-1.558,0.472-2.308c0.315-0.749,0.774-1.413,1.379-1.993
		s1.347-1.044,2.227-1.394c0.879-0.35,1.883-0.525,3.013-0.525c1.278,0,2.457,0.2,3.537,0.6c1.079,0.4,1.998,0.959,2.757,1.678
		L13.622,4.58z"/>
	<path fill="#FFFFFF" d="M17.133,22.312V0.039h3.702v8.558c0.6-0.57,1.259-1.029,1.979-1.379c0.72-0.349,1.563-0.525,2.532-0.525
		c0.839,0,1.584,0.143,2.233,0.428c0.649,0.285,1.191,0.684,1.627,1.199c0.434,0.515,0.764,1.129,0.988,1.843
		c0.226,0.715,0.338,1.502,0.338,2.361v9.788H26.83v-9.788c0-0.939-0.218-1.666-0.652-2.181c-0.435-0.514-1.086-0.772-1.956-0.772
		c-0.64,0-1.239,0.145-1.799,0.435c-0.559,0.29-1.089,0.685-1.588,1.184v11.122H17.133z"/>
	<path fill="#FFFFFF" d="M39.992,6.693c1.148,0,2.19,0.185,3.126,0.555c0.934,0.37,1.729,0.894,2.39,1.573
		c0.659,0.68,1.169,1.51,1.529,2.489c0.358,0.979,0.539,2.073,0.539,3.283c0,1.219-0.181,2.316-0.539,3.297
		c-0.36,0.979-0.87,1.812-1.529,2.502c-0.66,0.689-1.456,1.219-2.39,1.59c-0.936,0.369-1.978,0.553-3.126,0.553
		c-1.149,0-2.193-0.184-3.132-0.553c-0.939-0.371-1.741-0.9-2.406-1.59c-0.664-0.689-1.18-1.523-1.543-2.502
		c-0.365-0.98-0.547-2.078-0.547-3.297c0-1.21,0.182-2.304,0.547-3.283c0.363-0.979,0.879-1.809,1.543-2.489
		c0.665-0.679,1.467-1.203,2.406-1.573C37.799,6.878,38.843,6.693,39.992,6.693 M39.992,19.688c1.279,0,2.226-0.43,2.84-1.289
		c0.615-0.859,0.922-2.119,0.922-3.777c0-1.659-0.307-2.923-0.922-3.792c-0.614-0.869-1.561-1.304-2.84-1.304
		c-1.299,0-2.259,0.437-2.877,1.311c-0.62,0.875-0.931,2.136-0.931,3.785c0,1.648,0.311,2.904,0.931,3.77
		C37.733,19.257,38.693,19.688,39.992,19.688"/>
	<path fill="#FFFFFF" d="M49.723,22.312V6.934h2.174c0.379,0,0.644,0.07,0.794,0.209c0.149,0.14,0.25,0.38,0.3,0.72l0.225,1.858
		c0.55-0.949,1.193-1.698,1.934-2.248c0.738-0.549,1.567-0.824,2.487-0.824c0.76,0,1.389,0.175,1.89,0.524l-0.48,2.773
		c-0.029,0.18-0.095,0.307-0.194,0.382c-0.101,0.075-0.235,0.113-0.405,0.113c-0.15,0-0.354-0.036-0.614-0.105
		c-0.26-0.07-0.604-0.105-1.034-0.105c-0.77,0-1.43,0.212-1.979,0.637c-0.55,0.425-1.015,1.047-1.395,1.866v9.578H49.723z"/>
	<path fill="#FFFFFF" d="M67.203,6.693c0.969,0,1.86,0.155,2.675,0.465c0.814,0.309,1.517,0.762,2.106,1.356
		c0.589,0.595,1.05,1.324,1.378,2.188c0.33,0.865,0.496,1.852,0.496,2.96c0,0.279-0.014,0.512-0.039,0.695
		c-0.023,0.186-0.068,0.33-0.133,0.436c-0.066,0.105-0.154,0.18-0.264,0.225s-0.25,0.068-0.42,0.068H63.5
		c0.11,1.578,0.535,2.738,1.274,3.477c0.74,0.74,1.719,1.109,2.938,1.109c0.601,0,1.116-0.07,1.553-0.209
		c0.434-0.141,0.813-0.295,1.139-0.465c0.324-0.17,0.609-0.326,0.854-0.465c0.244-0.141,0.481-0.209,0.713-0.209
		c0.148,0,0.278,0.027,0.389,0.088c0.109,0.061,0.205,0.146,0.285,0.256l1.08,1.348c-0.41,0.48-0.869,0.883-1.379,1.207
		c-0.511,0.324-1.043,0.584-1.598,0.779c-0.554,0.195-1.119,0.332-1.692,0.414c-0.575,0.078-1.133,0.119-1.673,0.119
		c-1.068,0-2.062-0.178-2.981-0.533c-0.92-0.354-1.718-0.879-2.398-1.574c-0.68-0.693-1.214-1.553-1.604-2.576
		c-0.39-1.025-0.584-2.211-0.584-3.561c0-1.048,0.169-2.036,0.509-2.959c0.339-0.924,0.827-1.729,1.461-2.413
		c0.635-0.684,1.409-1.227,2.324-1.626C65.022,6.894,66.054,6.693,67.203,6.693 M67.277,9.347c-1.079,0-1.923,0.305-2.532,0.914
		c-0.609,0.61-1,1.474-1.169,2.592h6.954c0-0.479-0.065-0.931-0.195-1.355s-0.33-0.797-0.6-1.117
		c-0.27-0.32-0.609-0.572-1.018-0.757C68.308,9.438,67.826,9.347,67.277,9.347"/>
	<path fill="#FFFFFF" d="M87.677,10.186c-0.111,0.14-0.217,0.25-0.322,0.33s-0.258,0.12-0.457,0.12
		c-0.191,0-0.375-0.058-0.555-0.173c-0.182-0.114-0.396-0.245-0.645-0.389c-0.25-0.145-0.549-0.275-0.893-0.39
		c-0.344-0.115-0.771-0.172-1.281-0.172c-0.65,0-1.219,0.117-1.709,0.352c-0.49,0.234-0.896,0.572-1.221,1.012
		c-0.326,0.439-0.568,0.971-0.729,1.596c-0.16,0.624-0.238,1.332-0.238,2.121c0,0.818,0.088,1.547,0.262,2.188
		c0.176,0.639,0.428,1.176,0.756,1.611c0.33,0.436,0.732,0.764,1.201,0.988s0.998,0.338,1.588,0.338s1.066-0.072,1.432-0.217
		c0.365-0.146,0.67-0.305,0.922-0.48c0.248-0.174,0.467-0.334,0.652-0.479c0.184-0.146,0.391-0.217,0.621-0.217
		c0.301,0,0.525,0.113,0.674,0.344l1.064,1.348c-0.41,0.48-0.854,0.883-1.334,1.207s-0.977,0.584-1.492,0.779
		c-0.514,0.195-1.045,0.332-1.594,0.412c-0.551,0.08-1.096,0.121-1.635,0.121c-0.949,0-1.844-0.178-2.684-0.533
		c-0.838-0.354-1.57-0.871-2.195-1.551s-1.119-1.512-1.484-2.496c-0.363-0.984-0.545-2.105-0.545-3.363
		c0-1.131,0.16-2.176,0.486-3.14c0.324-0.965,0.801-1.799,1.432-2.503c0.629-0.705,1.408-1.257,2.338-1.657
		c0.93-0.399,1.998-0.599,3.207-0.599c1.148,0,2.154,0.185,3.02,0.554c0.865,0.37,1.643,0.9,2.33,1.589L87.677,10.186z"/>
	<path fill="#FFFFFF" d="M91.169,22.312V6.934h2.172c0.381,0,0.645,0.07,0.795,0.209c0.15,0.14,0.25,0.38,0.299,0.72l0.227,1.858
		c0.549-0.949,1.193-1.698,1.932-2.248c0.74-0.549,1.57-0.824,2.488-0.824c0.76,0,1.389,0.175,1.889,0.524l-0.479,2.773
		c-0.031,0.18-0.096,0.307-0.195,0.382c-0.1,0.075-0.236,0.113-0.406,0.113c-0.148,0-0.354-0.036-0.613-0.105
		c-0.26-0.07-0.604-0.105-1.033-0.105c-0.77,0-1.43,0.212-1.979,0.637c-0.551,0.425-1.014,1.047-1.395,1.866v9.578H91.169z"/>
	<path fill="#FFFFFF" d="M108.649,6.693c0.969,0,1.859,0.155,2.674,0.465c0.814,0.309,1.518,0.762,2.105,1.356
		c0.59,0.595,1.049,1.324,1.379,2.188c0.33,0.865,0.494,1.852,0.494,2.96c0,0.279-0.012,0.512-0.037,0.695
		c-0.023,0.186-0.068,0.33-0.135,0.436c-0.064,0.105-0.152,0.18-0.262,0.225s-0.25,0.068-0.42,0.068h-9.502
		c0.109,1.578,0.535,2.738,1.273,3.477c0.74,0.74,1.719,1.109,2.939,1.109c0.598,0,1.117-0.07,1.551-0.209
		c0.434-0.141,0.814-0.295,1.139-0.465s0.609-0.326,0.854-0.465c0.246-0.141,0.482-0.209,0.713-0.209
		c0.148,0,0.279,0.027,0.389,0.088c0.111,0.061,0.205,0.146,0.285,0.256l1.08,1.348c-0.41,0.48-0.871,0.883-1.379,1.207
		c-0.51,0.324-1.043,0.584-1.598,0.779s-1.117,0.332-1.693,0.414c-0.574,0.078-1.131,0.119-1.67,0.119
		c-1.07,0-2.064-0.178-2.984-0.533c-0.918-0.354-1.717-0.879-2.396-1.574c-0.68-0.693-1.215-1.553-1.604-2.576
		c-0.391-1.025-0.586-2.211-0.586-3.561c0-1.048,0.17-2.036,0.51-2.959s0.826-1.729,1.461-2.413s1.408-1.227,2.324-1.626
		C106.468,6.894,107.499,6.693,108.649,6.693 M108.724,9.347c-1.08,0-1.924,0.305-2.533,0.914c-0.609,0.61-0.998,1.474-1.17,2.592
		h6.955c0-0.479-0.064-0.931-0.195-1.355c-0.129-0.425-0.328-0.797-0.6-1.117c-0.268-0.32-0.609-0.572-1.018-0.757
		C109.753,9.438,109.272,9.347,108.724,9.347"/>
	<path fill="#FFFFFF" d="M127.069,9.931c-0.1,0.16-0.205,0.272-0.314,0.337c-0.111,0.065-0.25,0.098-0.42,0.098
		c-0.18,0-0.373-0.05-0.578-0.151c-0.203-0.099-0.441-0.211-0.711-0.337c-0.27-0.125-0.576-0.237-0.92-0.337
		c-0.346-0.099-0.754-0.15-1.225-0.15c-0.729,0-1.303,0.156-1.723,0.465c-0.42,0.31-0.629,0.714-0.629,1.214
		c0,0.33,0.107,0.607,0.322,0.832c0.215,0.224,0.5,0.422,0.854,0.592c0.355,0.169,0.758,0.322,1.207,0.457
		c0.451,0.135,0.91,0.282,1.379,0.443c0.471,0.16,0.93,0.342,1.379,0.547s0.852,0.465,1.205,0.779
		c0.357,0.314,0.641,0.691,0.855,1.131s0.324,0.971,0.324,1.59c0,0.738-0.137,1.42-0.406,2.045s-0.664,1.164-1.184,1.619
		s-1.162,0.809-1.926,1.062c-0.764,0.256-1.643,0.385-2.631,0.385c-0.531,0-1.047-0.049-1.551-0.145
		c-0.504-0.094-0.99-0.227-1.455-0.396c-0.463-0.17-0.893-0.369-1.289-0.6c-0.393-0.229-0.742-0.479-1.041-0.75l0.855-1.408
		c0.109-0.17,0.238-0.299,0.389-0.389s0.34-0.135,0.57-0.135c0.229,0,0.445,0.064,0.65,0.193c0.205,0.131,0.443,0.271,0.713,0.42
		c0.27,0.15,0.586,0.289,0.951,0.42s0.826,0.195,1.387,0.195c0.439,0,0.816-0.053,1.133-0.156c0.312-0.107,0.572-0.244,0.777-0.414
		c0.205-0.168,0.355-0.367,0.451-0.592c0.094-0.225,0.143-0.457,0.143-0.697c0-0.359-0.107-0.654-0.322-0.885
		c-0.215-0.229-0.5-0.428-0.855-0.6c-0.354-0.168-0.76-0.322-1.213-0.457c-0.455-0.133-0.92-0.281-1.395-0.441
		s-0.939-0.348-1.395-0.562c-0.455-0.213-0.859-0.486-1.213-0.816c-0.355-0.33-0.641-0.734-0.854-1.214
		c-0.217-0.479-0.322-1.059-0.322-1.738c0-0.63,0.125-1.229,0.373-1.799c0.25-0.569,0.617-1.066,1.102-1.491
		c0.484-0.425,1.088-0.764,1.814-1.019c0.725-0.255,1.561-0.383,2.51-0.383c1.059,0,2.023,0.175,2.893,0.525
		c0.869,0.35,1.594,0.809,2.174,1.379L127.069,9.931z"/>
	<path fill="#FFFFFF" d="M136.093,22.55c-1.328,0-2.354-0.377-3.072-1.131c-0.721-0.754-1.08-1.795-1.08-3.125V9.707h-1.559
		c-0.199,0-0.373-0.065-0.518-0.195s-0.217-0.325-0.217-0.585V7.458l2.473-0.404l0.779-4.197c0.041-0.2,0.133-0.354,0.277-0.465
		c0.145-0.11,0.326-0.165,0.547-0.165h1.918v4.842h4.047v2.638h-4.047v8.333c0,0.479,0.121,0.854,0.359,1.123
		c0.24,0.27,0.561,0.404,0.961,0.404c0.229,0,0.422-0.027,0.576-0.082s0.289-0.113,0.404-0.172c0.115-0.061,0.219-0.117,0.309-0.174
		c0.09-0.055,0.18-0.082,0.27-0.082c0.109,0,0.199,0.027,0.27,0.082c0.07,0.057,0.145,0.139,0.225,0.248l1.109,1.799
		c-0.539,0.449-1.158,0.789-1.857,1.02C137.565,22.435,136.843,22.55,136.093,22.55"/>
</g>
</svg>
